<svg width="18" height="21" viewBox="0 0 18 21" fill="none" xmlns="http://www.w3.org/2000/svg">
<g clip-path="url(#clip0_335_3)">
<path fill-rule="evenodd" clip-rule="evenodd" d="M4.76659 20.0609H16.6431C17.5236 20.0609 17.8307 19.7039 17.8307 18.8733V17.0918C17.8307 16.7638 17.5648 16.498 17.2369 16.498C16.9089 16.498 16.6431 16.7638 16.6431 17.0918V18.8733H4.76659V4.94851C4.76659 3.60378 4.53033 2.63893 4.16817 1.97939H15.4554C16.0274 1.97939 16.6431 2.90853 16.6431 4.94851V14.4893C16.6431 14.8172 16.9089 15.0831 17.2369 15.0831C17.5648 15.0831 17.8307 14.8172 17.8307 14.4893V4.94851C17.8307 1.88371 16.6037 0.791748 15.4554 0.791748H2.3913C1.243 0.791748 0.019165 1.71817 0.019165 4.78297C0.0191503 5.23824 0.272649 5.54233 0.727925 5.54233H3.57894V18.8733C3.57894 19.6511 3.95254 20.0609 4.76659 20.0609ZM1.22245 4.35469C1.3297 2.72733 1.87804 1.97939 2.3913 1.97939C2.90456 1.97939 3.45289 2.72733 3.56014 4.35469H1.22245Z" fill="url(#paint0_linear_335_3)"/>
<path d="M8.92335 9.14487H12.4863C12.8142 9.14487 13.0801 9.41074 13.0801 9.73869C13.0801 10.0666 12.8142 10.3325 12.4863 10.3325H8.92335C8.5954 10.3325 8.32953 10.0666 8.32953 9.73869C8.32953 9.41074 8.5954 9.14487 8.92335 9.14487Z" fill="url(#paint1_linear_335_3)"/>
<path d="M14.8616 12.7078H6.54807C6.22012 12.7078 5.95425 12.4419 5.95425 12.114C5.95425 11.786 6.22012 11.5202 6.54807 11.5202H14.8616C15.1895 11.5202 15.4554 11.786 15.4554 12.114C15.4554 12.4419 15.1895 12.7078 14.8616 12.7078Z" fill="url(#paint2_linear_335_3)"/>
<path d="M6.54807 15.0831H14.8616C15.1895 15.0831 15.4554 14.8172 15.4554 14.4893C15.4554 14.1613 15.1895 13.8954 14.8616 13.8954H6.54807C6.22012 13.8954 5.95425 14.1613 5.95425 14.4893C5.95425 14.8172 6.22012 15.0831 6.54807 15.0831Z" fill="url(#paint3_linear_335_3)"/>
<path d="M8.92334 17.6856H6.54805C6.2201 17.6856 5.95422 17.4197 5.95422 17.0918C5.95422 16.7638 6.2201 16.498 6.54805 16.498H8.92334C9.25129 16.498 9.51716 16.7638 9.51716 17.0918C9.51716 17.4197 9.25129 17.6856 8.92334 17.6856Z" fill="url(#paint4_linear_335_3)"/>
<path d="M14.8616 16.498H12.4863C12.1583 16.498 11.8925 16.7638 11.8925 17.0918C11.8925 17.4197 12.1583 17.6856 12.4863 17.6856H14.8616C15.1895 17.6856 15.4554 17.4197 15.4554 17.0918C15.4554 16.7638 15.1895 16.498 14.8616 16.498Z" fill="url(#paint5_linear_335_3)"/>
<path fill-rule="evenodd" clip-rule="evenodd" d="M10.096 3.41145C9.25377 3.41145 8.57101 4.09422 8.57101 4.93645V6.28831C8.57101 7.13054 9.25377 7.81331 10.096 7.81331H11.449C12.2912 7.81331 12.974 7.13054 12.974 6.28831V4.93645C12.974 4.09422 12.2912 3.41145 11.449 3.41145H10.096ZM9.62101 4.93645C9.62101 4.67412 9.83367 4.46145 10.096 4.46145H11.449C11.7113 4.46145 11.924 4.67412 11.924 4.93645V6.28831C11.924 6.55064 11.7113 6.76331 11.449 6.76331H10.096C9.83367 6.76331 9.62101 6.55064 9.62101 6.28831V4.93645Z" fill="url(#paint6_linear_335_3)"/>
</g>
<defs>
<linearGradient id="paint0_linear_335_3" x1="8.92493" y1="0.791748" x2="8.92493" y2="20.0609" gradientUnits="userSpaceOnUse">
<stop stop-color="#FC7D7B"/>
<stop offset="1" stop-color="#8E78FF"/>
</linearGradient>
<linearGradient id="paint1_linear_335_3" x1="10.7048" y1="9.14487" x2="10.7048" y2="10.3325" gradientUnits="userSpaceOnUse">
<stop stop-color="#FC7D7B"/>
<stop offset="1" stop-color="#8E78FF"/>
</linearGradient>
<linearGradient id="paint2_linear_335_3" x1="10.7048" y1="11.5202" x2="10.7048" y2="12.7078" gradientUnits="userSpaceOnUse">
<stop stop-color="#FC7D7B"/>
<stop offset="1" stop-color="#8E78FF"/>
</linearGradient>
<linearGradient id="paint3_linear_335_3" x1="10.7048" y1="13.8954" x2="10.7048" y2="15.0831" gradientUnits="userSpaceOnUse">
<stop stop-color="#FC7D7B"/>
<stop offset="1" stop-color="#8E78FF"/>
</linearGradient>
<linearGradient id="paint4_linear_335_3" x1="7.73569" y1="16.498" x2="7.73569" y2="17.6856" gradientUnits="userSpaceOnUse">
<stop stop-color="#FC7D7B"/>
<stop offset="1" stop-color="#8E78FF"/>
</linearGradient>
<linearGradient id="paint5_linear_335_3" x1="13.6739" y1="16.498" x2="13.6739" y2="17.6856" gradientUnits="userSpaceOnUse">
<stop stop-color="#FC7D7B"/>
<stop offset="1" stop-color="#8E78FF"/>
</linearGradient>
<linearGradient id="paint6_linear_335_3" x1="10.7725" y1="3.41145" x2="10.7725" y2="7.81331" gradientUnits="userSpaceOnUse">
<stop stop-color="#FC7D7B"/>
<stop offset="1" stop-color="#8E78FF"/>
</linearGradient>
<clipPath id="clip0_335_3">
<rect width="18" height="21" fill="white"/>
</clipPath>
</defs>
</svg>
